HIERARCHY
ROOT pelvis
{
	OFFSET -0.001795 -0.223333 0.028219
	CHANNELS 6 Xposition Yposition Zposition Zrotation Yrotation Xrotation 
	JOINT left_hip
	{
		OFFSET 0.069520 -0.091406 -0.006815
		CHANNELS 3 Zrotation Yrotation Xrotation
		JOINT left_knee
		{
			OFFSET 0.034277 -0.375199 -0.004496
			CHANNELS 3 Zrotation Yrotation Xrotation
			JOINT left_ankle
			{
				OFFSET -0.013596 -0.397960 -0.043693
				CHANNELS 3 Zrotation Yrotation Xrotation
				JOINT left_foot
				{
					OFFSET 0.026358 -0.055791 0.119288
					CHANNELS 3 Zrotation Yrotation Xrotation
					End Site
					{
						OFFSET 0.000000 0.000000 0.000000
					}
				}
			}
		}
	}
	JOINT right_hip
	{
		OFFSET -0.067670 -0.090522 -0.004320
		CHANNELS 3 Zrotation Yrotation Xrotation
		JOINT right_knee
		{
			OFFSET -0.038290 -0.382569 -0.008850
			CHANNELS 3 Zrotation Yrotation Xrotation
			JOINT right_ankle
			{
				OFFSET 0.015774 -0.398415 -0.042312
				CHANNELS 3 Zrotation Yrotation Xrotation
				JOINT right_foot
				{
					OFFSET -0.025372 -0.048144 0.123348
					CHANNELS 3 Zrotation Yrotation Xrotation
					End Site
					{
						OFFSET 0.000000 0.000000 0.000000
					}
				}
			}
		}
	}
	JOINT spine1
	{
		OFFSET -0.002533 0.108963 -0.026696
		CHANNELS 3 Zrotation Yrotation Xrotation
		JOINT spine2
		{
			OFFSET 0.005487 0.135180 0.001092
			CHANNELS 3 Zrotation Yrotation Xrotation
			JOINT spine3
			{
				OFFSET 0.001457 0.052922 0.025425
				CHANNELS 3 Zrotation Yrotation Xrotation
				JOINT neck
				{
					OFFSET -0.002778 0.213870 -0.042857
					CHANNELS 3 Zrotation Yrotation Xrotation
					JOINT head
					{
						OFFSET 0.005152 0.064970 0.051349
						CHANNELS 3 Zrotation Yrotation Xrotation
						End Site
						{
							OFFSET 0.000000 0.000000 0.000000
						}
					}
				}
				JOINT left_collar
				{
					OFFSET 0.078845 0.121749 -0.034090
					CHANNELS 3 Zrotation Yrotation Xrotation
					JOINT left_shoulder
					{
						OFFSET 0.090977 0.030469 -0.008868
						CHANNELS 3 Zrotation Yrotation Xrotation
						JOINT left_elbow
						{
							OFFSET 0.259612 -0.012772 -0.027456
							CHANNELS 3 Zrotation Yrotation Xrotation
							JOINT left_wrist
							{
								OFFSET 0.249234 0.008986 -0.001171
								CHANNELS 3 Zrotation Yrotation Xrotation
								JOINT left_index1
								{
									OFFSET 0.102484 -0.008981 0.021491
									CHANNELS 3 Zrotation Yrotation Xrotation
									JOINT left_index2
									{
										OFFSET 0.031800 0.002932 0.003266
										CHANNELS 3 Zrotation Yrotation Xrotation
										JOINT left_index3
										{
											OFFSET 0.022396 -0.001728 0.000648
											CHANNELS 3 Zrotation Yrotation Xrotation
											End Site
											{
												OFFSET 0.000000 0.000000 0.000000
											}
										}
									}
								}
								JOINT left_middle1
								{
									OFFSET 0.109780 -0.006115 -0.001322
									CHANNELS 3 Zrotation Yrotation Xrotation
									JOINT left_middle2
									{
										OFFSET 0.030515 0.001220 -0.004069
										CHANNELS 3 Zrotation Yrotation Xrotation
										JOINT left_middle3
										{
											OFFSET 0.023549 -0.001485 -0.003489
											CHANNELS 3 Zrotation Yrotation Xrotation
											End Site
											{
												OFFSET 0.000000 0.000000 0.000000
											}
										}
									}
								}
								JOINT left_pinky1
								{
									OFFSET 0.084607 -0.013848 -0.040620
									CHANNELS 3 Zrotation Yrotation Xrotation
									JOINT left_pinky2
									{
										OFFSET 0.015802 -0.000399 -0.010826
										CHANNELS 3 Zrotation Yrotation Xrotation
										JOINT left_pinky3
										{
											OFFSET 0.015880 -0.001251 -0.010132
											CHANNELS 3 Zrotation Yrotation Xrotation
											End Site
											{
												OFFSET 0.000000 0.000000 0.000000
											}
										}
									}
								}
								JOINT left_ring1
								{
									OFFSET 0.097812 -0.008749 -0.024310
									CHANNELS 3 Zrotation Yrotation Xrotation
									JOINT left_ring2
									{
										OFFSET 0.027834 0.001644 -0.004373
										CHANNELS 3 Zrotation Yrotation Xrotation
										JOINT left_ring3
										{
											OFFSET 0.022662 -0.001388 -0.006477
											CHANNELS 3 Zrotation Yrotation Xrotation
											End Site
											{
												OFFSET 0.000000 0.000000 0.000000
											}
										}
									}
								}
								JOINT left_thumb1
								{
									OFFSET 0.041933 -0.019946 0.026537
									CHANNELS 3 Zrotation Yrotation Xrotation
									JOINT left_thumb2
									{
										OFFSET 0.017701 0.001768 0.024200
										CHANNELS 3 Zrotation Yrotation Xrotation
										JOINT left_thumb3
										{
											OFFSET 0.021232 -0.003607 0.014869
											CHANNELS 3 Zrotation Yrotation Xrotation
											End Site
											{
												OFFSET 0.000000 0.000000 0.000000
											}
										}
									}
								}
							}
						}
					}
				}
				JOINT right_collar
				{
					OFFSET -0.081759 0.118833 -0.038615
					CHANNELS 3 Zrotation Yrotation Xrotation
					JOINT right_shoulder
					{
						OFFSET -0.096012 0.032551 -0.009143
						CHANNELS 3 Zrotation Yrotation Xrotation
						JOINT right_elbow
						{
							OFFSET -0.253742 -0.013329 -0.021401
							CHANNELS 3 Zrotation Yrotation Xrotation
							JOINT right_wrist
							{
								OFFSET -0.255298 0.007772 -0.005559
								CHANNELS 3 Zrotation Yrotation Xrotation
								JOINT right_index1
								{
									OFFSET -0.099298 -0.008649 0.024635
									CHANNELS 3 Zrotation Yrotation Xrotation
									JOINT right_index2
									{
										OFFSET -0.032181 0.002899 0.002368
										CHANNELS 3 Zrotation Yrotation Xrotation
										JOINT right_index3
										{
											OFFSET -0.022296 -0.001779 -0.000383
											CHANNELS 3 Zrotation Yrotation Xrotation
											End Site
											{
												OFFSET 0.000000 0.000000 0.000000
											}
										}
									}
								}
								JOINT right_middle1
								{
									OFFSET -0.107157 -0.005477 0.000782
									CHANNELS 3 Zrotation Yrotation Xrotation
									JOINT right_middle2
									{
										OFFSET -0.030348 0.001453 -0.004161
										CHANNELS 3 Zrotation Yrotation Xrotation
										JOINT right_middle3
										{
											OFFSET -0.023137 -0.001426 -0.003914
											CHANNELS 3 Zrotation Yrotation Xrotation
											End Site
											{
												OFFSET 0.000000 0.000000 0.000000
											}
										}
									}
								}
								JOINT right_pinky1
								{
									OFFSET -0.083030 -0.013642 -0.039365
									CHANNELS 3 Zrotation Yrotation Xrotation
									JOINT right_pinky2
									{
										OFFSET -0.015632 -0.000323 -0.011126
										CHANNELS 3 Zrotation Yrotation Xrotation
										JOINT right_pinky3
										{
											OFFSET -0.015715 -0.001039 -0.010114
											CHANNELS 3 Zrotation Yrotation Xrotation
											End Site
											{
												OFFSET 0.000000 0.000000 0.000000
											}
										}
									}
								}
								JOINT right_ring1
								{
									OFFSET -0.095789 -0.008266 -0.022902
									CHANNELS 3 Zrotation Yrotation Xrotation
									JOINT right_ring2
									{
										OFFSET -0.027596 0.001722 -0.004571
										CHANNELS 3 Zrotation Yrotation Xrotation
										JOINT right_ring3
										{
											OFFSET -0.022418 -0.001393 -0.006963
											CHANNELS 3 Zrotation Yrotation Xrotation
											End Site
											{
												OFFSET 0.000000 0.000000 0.000000
											}
										}
									}
								}
								JOINT right_thumb1
								{
									OFFSET -0.037817 -0.020145 0.030126
									CHANNELS 3 Zrotation Yrotation Xrotation
									JOINT right_thumb2
									{
										OFFSET -0.017439 0.000834 0.024485
										CHANNELS 3 Zrotation Yrotation Xrotation
										JOINT right_thumb3
										{
											OFFSET -0.021343 -0.004986 0.014434
											CHANNELS 3 Zrotation Yrotation Xrotation
											End Site
											{
												OFFSET 0.000000 0.000000 0.000000
											}
										}
									}
								}
							}
						}
					}
				}
			}
		}
	}
}
MOTION
Frames: 7
Frame Time: 0.034483
0.321555 -0.036074 -4.353422 -175.190964 -59.683064 172.941547 2.261931 1.261785 -9.346422 1.636987 11.082541 45.197483 -1.927735 -6.356573 -2.685985 -3.538697 16.100662 -11.980851 6.373558 3.812882 -26.169924 0.209558 -0.226455 10.629789 4.582289 4.653978 20.845226 11.330860 -2.976066 6.799748 -0.797946 -6.412377 21.077419 2.382030 -3.383542 -11.605103 2.045707 -3.740596 5.307987 -2.041260 2.576479 -3.929677 -5.986944 1.933532 -15.112829 6.816461 7.862264 -5.662080 -32.721317 8.040935 18.483877 20.739351 -23.471972 -23.012682 41.370007 -2.662040 17.255365 10.873988 17.184607 -2.594064 -16.831821 -0.029519 -0.273557 -4.652522 0.398222 1.454982 3.151733 14.351789 -7.600989 -9.901812 0.153617 -2.569341 -3.028643 0.549334 2.777527 19.958658 4.675666 4.201672 -1.936748 1.575391 -2.918911 1.429627 -0.580578 -1.194870 2.740161 3.686583 -5.833099 -11.166124 1.454644 3.042985 0.732097 -0.839594 0.072048 -23.805235 7.980022 21.019091 3.308572 3.316852 -4.945181 -15.696795 -1.434329 6.347004 12.571590 -18.963575 -10.979783 37.543152 -7.829836 13.367992 -105.941422 55.589485 -91.614021 -15.368775 7.905469 -12.541373 24.896961 -13.492118 -6.062609 35.624767 3.622635 0.739626 12.196022 -0.586045 2.481510 50.958370 -0.992113 -15.824244 21.133478 1.128466 1.031982 11.957715 4.947830 3.217901 54.590641 25.427246 -20.498785 14.547984 10.982621 -3.860846 8.949806 -3.088671 -10.352024 54.100185 12.618551 -11.404855 23.234783 5.480512 -0.248229 15.851598 5.682477 -2.641100 2.359303 -13.908298 10.961535 1.487663 -14.607021 -3.116728 12.701141 -7.301715 9.450278
0.333791 -0.027567 -4.348832 -175.084412 -63.272690 173.404739 2.904760 0.721750 -8.942773 1.138775 9.837064 40.886547 -2.475632 -6.159468 -2.352119 -3.869193 14.392158 -13.047793 4.411411 3.873176 -28.305433 0.743578 -0.945685 18.784567 4.185299 2.638682 17.351320 9.061255 -1.470180 6.460863 -0.570836 -6.226872 22.406246 2.396062 -3.236112 -12.277070 1.915452 -3.503770 5.390414 -1.702045 1.917989 -5.520573 -5.835518 1.246581 -15.409210 8.923529 3.277265 -6.870993 -29.930714 6.660579 19.008226 21.166599 -34.773415 -16.866724 40.294525 -0.892724 18.902142 11.459715 14.672043 -2.770310 -16.922674 0.131724 -0.436835 -5.161358 0.284954 1.648742 3.293253 12.615693 -7.576998 -7.840629 -0.114442 -2.195041 -3.174677 0.467978 2.559024 23.902122 6.471059 7.744480 -2.464333 1.379497 -3.369204 0.998792 -0.908948 -1.040726 3.409259 4.033062 -5.165404 -10.404275 1.657712 2.933171 1.421860 -0.641589 0.376388 -25.286345 10.784380 18.528063 3.602377 2.248103 -4.857462 -14.712783 -2.085771 5.814715 8.993544 -13.770812 -11.300754 35.797455 -7.891494 14.497310 -95.682388 60.086338 -85.171829 -18.971325 18.071365 -12.877963 24.452375 -13.393411 -3.589682 34.850975 3.536415 0.950077 11.413668 -0.559654 2.751232 49.982643 -1.155878 -13.792192 22.181984 0.968243 1.241361 12.089578 5.222380 3.559346 52.162346 25.302202 -17.782156 15.848051 11.404127 -4.893092 9.097530 -2.330403 -10.246908 53.733521 12.429580 -10.072017 24.158525 5.886988 -0.188249 14.943278 5.473536 -2.370049 1.616967 -17.248907 14.097961 -0.316184 -14.069950 -2.929844 12.979267 -5.504396 8.806395
0.347938 -0.018724 -4.358847 -174.788239 -68.705582 173.890255 2.964726 -0.277562 -8.519965 0.909341 8.300441 35.212162 -3.140992 -5.460054 -1.332571 -3.501348 12.276998 -15.641363 1.782457 3.329587 -29.138647 0.925758 -2.044458 28.701233 4.965442 -0.049332 13.509226 2.940047 0.542643 5.267665 -0.199671 -5.594453 23.243214 1.808770 -3.159979 -13.251624 1.666783 -2.759265 5.403398 -0.928089 -0.218940 -6.729104 -5.688015 0.730225 -14.708055 11.972397 -4.685991 -10.455558 -28.610939 1.745007 20.389006 18.473503 -43.739414 -7.712771 39.975964 2.190822 23.736797 11.018113 13.792976 -3.299064 -15.826191 0.267178 -0.073406 -3.450800 0.579958 1.250612 2.300036 12.233207 -8.415908 -4.700222 -0.374751 -1.434842 -3.895652 0.595095 2.041451 27.832575 7.140635 11.289464 -3.821156 0.559200 -4.103517 -0.269045 -1.553123 -1.224595 4.476731 4.079189 -4.298258 -9.921652 1.888889 2.944342 1.186428 -0.597336 0.300716 -26.210588 10.692512 14.485524 2.307764 2.448190 -3.587875 -13.744470 -2.283960 5.404521 2.848988 -3.658163 -12.872852 31.717146 -4.332109 14.787997 -73.504555 63.948174 -64.884468 -18.912621 17.388166 -6.740658 22.041044 -12.266899 -4.228899 35.141514 3.157044 1.266101 11.540221 -0.222194 2.543177 46.989960 -1.153082 -13.779287 21.211729 0.751041 1.205616 12.364505 5.104887 3.687256 49.945518 23.648363 -17.612946 16.759264 10.430994 -3.132586 8.240686 -1.369610 -12.360828 50.603653 11.782767 -9.848501 24.509336 5.775875 -0.054557 14.331572 5.316872 -2.347243 3.594729 -17.129416 12.298544 -1.771977 -13.338043 -2.102115 13.547117 -4.436130 8.216387
0.362676 -0.009823 -4.358880 -175.507812 -75.100517 174.921859 2.237873 -1.678097 -7.951914 0.742769 6.926947 30.044586 -2.845705 -5.777102 -1.236100 -3.229574 11.012554 -17.391146 -1.170208 1.808032 -27.777367 0.592332 -3.624132 39.929195 5.596836 -2.499142 10.536786 -2.694687 1.715997 1.681787 0.203720 -4.397943 23.521465 1.882563 -2.877155 -13.427518 1.564474 -1.864493 4.930733 -1.020645 -0.584022 -7.699117 -5.866441 -0.252996 -12.411786 13.379723 -13.015693 -13.391186 -29.195566 -6.065881 20.413559 14.661485 -49.112492 -0.614575 41.294342 0.733237 24.056992 12.113709 12.726984 -2.870433 -14.459228 0.279628 0.020765 -1.716390 0.774674 1.434190 5.024950 11.202348 -7.614213 -1.412750 -0.188699 -0.587516 -3.821813 0.741923 1.819789 27.219051 10.258125 10.756080 -3.752072 0.537832 -3.507444 0.296515 -1.422781 -0.469012 7.185814 4.428641 -2.598544 -8.173656 2.225737 3.638173 1.950210 -0.016241 0.441473 -25.296906 11.213407 11.386203 2.085811 3.298620 -2.718648 -13.361239 -2.992475 5.288569 0.262139 6.279157 -14.345251 32.721260 0.974986 15.112879 -79.783623 67.152863 -70.536598 -21.813532 21.118525 -3.921988 20.321110 -11.458714 -3.946335 34.565945 3.071806 1.403216 11.277625 -0.119467 2.560541 44.041821 -1.020341 -12.956283 19.486889 0.827015 1.159668 12.508898 5.014657 3.916800 46.629971 22.963350 -16.750540 16.522026 9.828343 -1.857420 7.157631 -1.287767 -13.607815 46.859425 11.817804 -9.269999 23.807123 5.592431 0.579133 13.244959 5.151896 -2.369087 3.620661 -17.784094 12.499998 -2.794301 -12.818885 -2.338965 13.679735 -4.205780 8.184888
0.374494 -0.004978 -4.364328 -176.730698 -80.587540 176.512115 1.499867 -2.809316 -8.274903 0.618262 6.327229 27.449591 -2.090410 -6.712611 -0.389709 -3.168789 10.477478 -19.290770 -3.209357 0.552605 -24.034346 -0.347808 -4.982149 48.791267 6.688991 -4.587104 10.160892 -8.826556 2.471737 -1.317415 0.785680 -2.780571 22.491209 2.096726 -2.433677 -12.951215 1.319305 -0.615327 3.936675 -1.030627 -0.665984 -8.329529 -6.551287 -1.403537 -8.436170 12.639440 -19.571043 -14.288548 -31.939939 -13.241473 20.177622 15.440366 -56.272102 1.176351 36.903080 -5.065526 24.081388 11.354056 9.382548 -2.121022 -12.985245 0.277158 0.333106 0.186837 0.845772 1.519323 6.520058 9.365295 -6.435199 1.468775 -0.543751 0.027724 -4.551889 0.910280 1.573498 27.157341 16.483494 10.711089 -2.550442 0.573953 -1.406161 1.912695 -0.338338 -0.448050 8.912047 6.240324 -0.800565 -5.036873 1.960703 4.231839 1.692485 0.491188 0.440118 -20.684547 8.397638 5.283098 1.474332 2.483982 -2.023516 -11.984943 -4.804986 4.569178 0.927814 16.515930 -13.626378 34.468910 7.186894 17.074186 -90.760834 71.440544 -80.054008 -29.212011 23.254215 -1.748868 22.717642 -10.536819 -6.259551 36.991310 2.810016 2.123883 12.686008 0.378190 1.946854 45.390152 0.888315 -13.949229 20.985773 0.741335 0.858843 12.651257 5.458148 4.375355 46.961086 24.920965 -17.201756 17.494164 9.691724 -1.208003 7.709065 -0.478636 -14.243715 46.309048 13.321077 -8.199128 26.020739 5.745457 0.224943 14.141436 6.705320 -2.596520 4.056431 -16.601103 12.123332 -2.874869 -13.546452 -2.981532 14.099790 -5.846661 8.628723
0.380962 -0.001821 -4.354114 177.516846 -84.835175 -177.727246 0.617437 -3.521924 -10.458498 0.212422 6.460808 29.039143 -1.402024 -6.688095 0.801907 -2.107314 9.562985 -19.927967 -4.112290 -1.217694 -17.071671 -1.377443 -5.807481 51.780453 7.735514 -6.513064 10.717608 -14.684841 2.733674 -5.640009 1.165587 -0.630563 20.425724 1.317036 -2.318254 -11.718390 0.821414 0.638358 2.965346 -0.925474 -0.648637 -6.925354 -7.522177 -2.271483 -5.387141 9.504437 -23.126995 -13.811382 -36.616581 -18.983068 19.794361 18.191730 -56.517174 -2.956787 36.518051 -9.711127 19.098593 6.430207 10.271752 -1.307158 -17.518946 -0.105578 1.144393 -1.684712 0.147995 1.575333 -1.277749 7.568040 -8.040949 -2.464565 -0.062903 0.217987 -6.350070 -0.129550 1.525881 13.183054 15.938937 1.680130 -3.903800 -1.282464 -0.148081 1.351106 0.103475 -2.763892 -0.470580 4.524642 -2.969323 -6.681950 0.577693 3.183605 -1.583776 -0.376095 -0.074265 -15.110065 7.501676 2.481679 0.691889 3.603457 -1.091280 -12.043376 -3.706153 4.475371 2.121117 24.675138 -12.943578 37.913929 14.505352 18.471600 -92.467865 71.560417 -81.715668 -31.569256 26.813911 -3.916087 24.041056 -10.528422 -5.769582 36.371433 2.713747 2.987074 11.791592 0.853916 1.554979 45.535957 1.294090 -13.093680 20.036011 0.616330 1.225392 13.242426 5.603574 4.476705 45.195293 24.373789 -16.104040 17.288328 10.620825 -1.829977 8.165379 -0.453522 -13.903131 44.359184 13.841264 -6.338822 25.540163 5.901848 0.378361 13.779839 6.966463 -2.644538 4.154513 -16.925381 13.213558 -3.772997 -14.288438 -2.337090 14.524210 -6.149372 8.345352
0.384180 -0.006524 -4.347016 174.450851 -86.680107 -174.567969 0.359975 -4.671894 -15.450024 0.411289 7.695372 35.723232 -0.228401 -6.690751 2.730001 -2.861443 10.026379 -17.388605 -4.109809 -3.357935 -7.548647 -2.479357 -6.747133 47.822365 7.775028 -5.485836 10.426135 -16.492409 0.796231 -9.779837 1.655985 2.691175 18.103024 -0.004617 -2.239631 -10.907863 0.193318 2.449964 2.225505 -0.562529 0.083194 -4.631236 -8.648580 -3.163246 -3.056846 4.948826 -21.951435 -12.327332 -41.850475 -20.774654 19.948349 29.282375 -59.490086 -15.094682 34.804466 -11.385742 13.825907 1.008590 12.376350 -0.738182 -20.857605 -0.444991 1.936403 -2.372443 -0.308511 1.323129 -11.970715 5.922822 -10.308186 -4.819478 0.239456 0.659715 -8.252338 -0.782678 1.348038 -5.173179 10.148075 -10.146591 -5.253368 -2.896529 1.336386 0.052906 0.857642 -5.376222 -11.193231 1.463631 -5.469959 -8.985929 -0.596636 2.214029 -5.081773 -1.611915 -0.984257 -9.869789 5.647403 -0.086274 -0.646526 4.979928 -0.178766 -11.654737 -1.955287 4.831871 3.424931 30.820080 -12.384789 39.065903 20.828285 18.479097 -111.823021 70.157585 -98.205872 -29.765993 17.652246 -1.636109 24.368431 -10.801142 -8.126049 36.487705 2.400035 3.772781 11.465951 1.598315 0.819541 45.661160 0.891212 -14.425999 17.518349 0.698537 1.324776 13.646215 5.382490 4.360386 45.530777 23.990345 -18.535887 14.948188 9.785132 -0.596473 7.955089 -1.008699 -13.734903 41.863438 13.923355 -6.066985 23.954115 5.330313 0.858157 13.920324 7.542186 -2.963930 5.968823 -13.901719 10.972617 -2.761476 -14.465976 -2.504608 14.318467 -8.057824 8.339817
